<svg id="Capa_1" enable-background="new 0 0 512 512" height="512" viewBox="0 0 512 512" width="512" xmlns="http://www.w3.org/2000/svg"><g><path d="m216 226c5.522 0 10-4.478 10-10v-40c0-5.522-4.478-10-10-10s-10 4.478-10 10v40c0 5.522 4.478 10 10 10z"/><path d="m256 226c5.522 0 10-4.478 10-10v-40c0-5.522-4.478-10-10-10s-10 4.478-10 10v40c0 5.522 4.478 10 10 10z"/><path d="m296 226c5.522 0 10-4.478 10-10v-40c0-5.522-4.478-10-10-10s-10 4.478-10 10v40c0 5.522 4.478 10 10 10z"/><path d="m216 306c5.522 0 10-4.478 10-10v-40c0-5.522-4.478-10-10-10s-10 4.478-10 10v40c0 5.522 4.478 10 10 10z"/><path d="m256 306c5.522 0 10-4.478 10-10v-40c0-5.522-4.478-10-10-10s-10 4.478-10 10v40c0 5.522 4.478 10 10 10z"/><path d="m296 306c5.522 0 10-4.478 10-10v-40c0-5.522-4.478-10-10-10s-10 4.478-10 10v40c0 5.522 4.478 10 10 10z"/><path d="m216 386c5.522 0 10-4.478 10-10v-40c0-5.522-4.478-10-10-10s-10 4.478-10 10v40c0 5.522 4.478 10 10 10z"/><path d="m256 386c5.522 0 10-4.478 10-10v-40c0-5.522-4.478-10-10-10s-10 4.478-10 10v40c0 5.522 4.478 10 10 10z"/><path d="m296 386c5.522 0 10-4.478 10-10v-40c0-5.522-4.478-10-10-10s-10 4.478-10 10v40c0 5.522 4.478 10 10 10z"/><path d="m502 492h-10v-54.999c0-5.522-4.478-10-10-10s-10 4.478-10 10v54.999h-126v-279.118c15.351 8.411 88.511 48.499 126 69.041v65.077c0 5.522 4.478 10 10 10s10-4.478 10-10v-71c0-3.652-1.991-7.015-5.194-8.77l-14.806-8.112v-43.118c0-5.522-4.478-10-10-10h-86.94l-29.06-15.923v-54.077c0-5.522-4.478-10-10-10h-30v-30c0-5.522-4.478-10-10-10h-10v-10c0-13.036-8.361-24.152-20-28.28v-37.72c0-5.522-4.478-10-10-10s-10 4.478-10 10v37.72c-11.639 4.128-20 15.243-20 28.28v10h-10c-5.522 0-10 4.478-10 10v30h-30c-5.522 0-10 4.478-10 10v110h-20v-10c0-2.652-1.054-5.195-2.929-7.071l-17.07-17.07c12.833-19.404 10.714-45.855-6.36-62.93-3.906-3.904-10.236-3.904-14.143 0l-21.214 21.214-7.074-7.074c-3.906-3.904-10.236-3.904-14.143 0-3.905 3.905-3.905 10.237 0 14.143l7.074 7.074-21.214 21.214c-3.905 3.905-3.905 10.237 0 14.143 17.157 17.155 43.616 19.133 62.93 6.36l14.143 14.14v5.857h-76c-5.522 0-10 4.478-10 10v30h-30c-5.522 0-10 4.478-10 10s4.478 10 10 10h10v186h-10c-5.522 0-10 4.478-10 10s4.478 10 10 10h492c5.522 0 10-4.478 10-10s-4.478-10-10-10zm-50-266v22.159l-40.44-22.159zm-346.501-20.501c-9.22 9.219-22.994 11.171-34.146 5.859l40.005-40.005c5.314 11.151 3.361 24.927-5.859 34.146zm20.501 286.501h-46v-66h46zm40 0h-20v-76c0-5.522-4.478-10-10-10h-66c-5.522 0-10 4.478-10 10v76h-20v-186h126zm0-206h-106v-20h106zm80-210c0-5.514 4.486-10 10-10s10 4.486 10 10v10h-20zm-20 30h60v20h-60zm60 386h-60v-66h60zm40 0h-20v-76c0-5.522-4.478-10-10-10h-80c-5.522 0-10 4.478-10 10v76h-20v-346h140z"/><path d="m442 292h-66c-5.522 0-10 4.478-10 10s4.478 10 10 10h66c5.522 0 10-4.478 10-10s-4.478-10-10-10z"/><path d="m442 332h-66c-5.522 0-10 4.478-10 10s4.478 10 10 10h66c5.522 0 10-4.478 10-10s-4.478-10-10-10z"/><path d="m442 372h-66c-5.522 0-10 4.478-10 10s4.478 10 10 10h66c5.522 0 10-4.478 10-10s-4.478-10-10-10z"/><path d="m442 412h-66c-5.522 0-10 4.478-10 10s4.478 10 10 10h66c5.522 0 10-4.478 10-10s-4.478-10-10-10z"/><path d="m442 452h-66c-5.522 0-10 4.478-10 10s4.478 10 10 10h66c5.522 0 10-4.478 10-10s-4.478-10-10-10z"/><path d="m70 386h66c5.522 0 10-4.478 10-10v-40c0-5.522-4.478-10-10-10h-66c-5.522 0-10 4.478-10 10v40c0 5.522 4.478 10 10 10zm10-40h46v20h-46z"/><circle cx="482" cy="392" r="10"/></g></svg>