<svg height="512pt" viewBox="-24 0 511 512" width="512pt" xmlns="http://www.w3.org/2000/svg"><g fill-rule="evenodd"><path d="m426.253906 435.714844h-35.222656v-284.296875c0-5.550781-4.503906-10.054688-10.054688-10.054688-5.550781 0-10.050781 4.503907-10.050781 10.054688v284.296875h-42.484375v-41.953125c0-5.550781-4.503906-10.054688-10.054687-10.054688h-171.878907c-5.550781 0-10.050781 4.503907-10.050781 10.054688v41.953125h-42.488281v-20.105469c0-5.550781-4.5-10.054687-10.050781-10.054687s-10.054688 4.503906-10.054688 10.054687v20.105469h-35.222656c-21.03125 0-38.140625 17.113281-38.140625 38.144531s17.109375 38.140625 38.140625 38.140625h387.613281c21.03125 0 38.140625-17.109375 38.140625-38.140625.003907-21.03125-17.109375-38.144531-38.140625-38.144531zm-269.691406-31.902344h151.773438v31.902344h-151.773438zm269.691406 88.082031h-387.613281c-9.945313 0-18.035156-8.089843-18.035156-18.035156s8.089843-18.039063 18.035156-18.039063h387.613281c9.945313 0 18.039063 8.09375 18.039063 18.039063s-8.09375 18.035156-18.039063 18.035156zm0 0"/><path d="m83.917969 345.238281c5.550781 0 10.050781-4.5 10.050781-10.050781v-294.351562c0-11.429688 9.300781-20.730469 20.730469-20.730469h235.496093c11.429688 0 20.730469 9.300781 20.730469 20.730469v30.160156c0 5.550781 4.5 10.050781 10.050781 10.050781 5.550782 0 10.054688-4.5 10.054688-10.050781v-30.160156c0-22.515626-18.320312-40.835938-40.835938-40.835938h-235.496093c-22.515625 0-40.835938 18.320312-40.835938 40.835938v294.351562c0 5.550781 4.503907 10.050781 10.054688 10.050781zm0 0"/><path d="m318.386719 272.441406h-59.257813c-5.550781 0-10.054687 4.5-10.054687 10.050782v59.257812c0 5.550781 4.503906 10.054688 10.054687 10.054688h59.257813c5.550781 0 10.054687-4.503907 10.054687-10.054688v-59.257812c0-5.550782-4.503906-10.050782-10.054687-10.050782zm-10.050781 59.257813h-39.15625v-39.152344h39.15625zm0 0"/><path d="m328.441406 173.976562c0-5.550781-4.503906-10.050781-10.054687-10.050781h-59.257813c-5.550781 0-10.054687 4.5-10.054687 10.050781v59.257813c0 5.550781 4.503906 10.054687 10.054687 10.054687h59.257813c5.550781 0 10.054687-4.503906 10.054687-10.054687zm-20.105468 49.207032h-39.15625v-39.152344h39.15625zm0 0"/><path d="m205.765625 272.441406h-59.257813c-5.550781 0-10.050781 4.5-10.050781 10.050782v59.257812c0 5.550781 4.5 10.054688 10.050781 10.054688h59.257813c5.554687 0 10.054687-4.503907 10.054687-10.054688v-59.257812c0-5.550782-4.5-10.050782-10.054687-10.050782zm-10.050781 59.257813h-39.152344v-39.152344h39.152344zm0 0"/><path d="m215.820312 65.460938c0-5.550782-4.5-10.050782-10.054687-10.050782h-59.257813c-5.550781 0-10.050781 4.5-10.050781 10.050782v59.257812c0 5.550781 4.5 10.054688 10.050781 10.054688h59.257813c5.554687 0 10.054687-4.503907 10.054687-10.054688zm-20.105468 49.207031h-39.152344v-39.152344h39.152344zm0 0"/><path d="m328.441406 65.460938c0-5.550782-4.503906-10.050782-10.054687-10.050782h-59.257813c-5.550781 0-10.054687 4.5-10.054687 10.050782v59.257812c0 5.550781 4.503906 10.054688 10.054687 10.054688h59.257813c5.550781 0 10.054687-4.503907 10.054687-10.054688zm-20.105468 49.207031h-39.15625v-39.152344h39.15625zm0 0"/><path d="m215.820312 173.976562c0-5.550781-4.5-10.050781-10.054687-10.050781h-59.257813c-5.550781 0-10.050781 4.5-10.050781 10.050781v59.257813c0 5.550781 4.5 10.054687 10.050781 10.054687h59.257813c5.554687 0 10.054687-4.503906 10.054687-10.054687zm-20.105468 49.207032h-39.152344v-39.152344h39.152344zm0 0"/><path d="m83.917969 365.34375c-5.535157 0-10.050781 4.515625-10.050781 10.054688 0 5.535156 4.515624 10.050781 10.050781 10.050781 5.535156 0 10.054687-4.515625 10.054687-10.050781 0-5.539063-4.519531-10.054688-10.054687-10.054688zm0 0"/><path d="m380.976562 101.152344c-5.535156 0-10.050781 4.515625-10.050781 10.054687 0 5.535157 4.515625 10.050781 10.050781 10.050781 5.539063 0 10.054688-4.515624 10.054688-10.050781 0-5.539062-4.515625-10.054687-10.054688-10.054687zm0 0"/></g></svg>